<mxfile host="Electron" modified="2024-01-16T12:22:26.345Z" agent="Mozilla/5.0 (Windows NT 10.0; Win64; x64) AppleWebKit/537.36 (KHTML, like Gecko) draw.io/22.1.18 Chrome/120.0.6099.199 Electron/28.1.2 Safari/537.36" etag="H6thNjmT3qiLItagYCZn" version="22.1.18" type="device">
  <diagram name="数组的内存管理" id="zx3Y2MSCYYxHBBM3QiKJ">
    <mxGraphModel dx="627" dy="468" grid="1" gridSize="10" guides="1" tooltips="1" connect="1" arrows="1" fold="1" page="1" pageScale="1" pageWidth="827" pageHeight="1169" math="0" shadow="0">
      <root>
        <mxCell id="0" />
        <mxCell id="1" parent="0" />
        <mxCell id="dh_aXsxSKlGYjo4SRe9w-5" value="" style="rounded=0;whiteSpace=wrap;html=1;" vertex="1" parent="1">
          <mxGeometry x="397" y="100" width="236" height="330" as="geometry" />
        </mxCell>
        <mxCell id="dh_aXsxSKlGYjo4SRe9w-4" value="var numbers [3]int8" style="text;strokeColor=none;align=center;fillColor=none;html=1;verticalAlign=middle;whiteSpace=wrap;rounded=0;" vertex="1" parent="1">
          <mxGeometry x="230" y="110" width="120" height="30" as="geometry" />
        </mxCell>
        <mxCell id="dh_aXsxSKlGYjo4SRe9w-12" value="" style="endArrow=classic;html=1;rounded=0;" edge="1" parent="1">
          <mxGeometry width="50" height="50" relative="1" as="geometry">
            <mxPoint x="355" y="124.70999999999998" as="sourcePoint" />
            <mxPoint x="455" y="124.70999999999998" as="targetPoint" />
          </mxGeometry>
        </mxCell>
        <mxCell id="dh_aXsxSKlGYjo4SRe9w-13" value="numbers := [3]int32{19, 21, 10}" style="text;strokeColor=none;align=center;fillColor=none;html=1;verticalAlign=middle;whiteSpace=wrap;rounded=0;" vertex="1" parent="1">
          <mxGeometry x="180" y="190" width="170" height="30" as="geometry" />
        </mxCell>
        <mxCell id="dh_aXsxSKlGYjo4SRe9w-14" value="" style="group" vertex="1" connectable="0" parent="1">
          <mxGeometry x="455" y="110" width="120" height="55" as="geometry" />
        </mxCell>
        <mxCell id="dh_aXsxSKlGYjo4SRe9w-15" value="" style="group" vertex="1" connectable="0" parent="dh_aXsxSKlGYjo4SRe9w-14">
          <mxGeometry width="120" height="55" as="geometry" />
        </mxCell>
        <mxCell id="dh_aXsxSKlGYjo4SRe9w-6" value="0" style="rounded=0;whiteSpace=wrap;html=1;fillColor=#ffe6cc;strokeColor=#d79b00;" vertex="1" parent="dh_aXsxSKlGYjo4SRe9w-15">
          <mxGeometry x="15" width="30" height="30" as="geometry" />
        </mxCell>
        <mxCell id="dh_aXsxSKlGYjo4SRe9w-9" value="0" style="rounded=0;whiteSpace=wrap;html=1;fillColor=#ffe6cc;strokeColor=#d79b00;" vertex="1" parent="dh_aXsxSKlGYjo4SRe9w-15">
          <mxGeometry x="45" width="30" height="30" as="geometry" />
        </mxCell>
        <mxCell id="dh_aXsxSKlGYjo4SRe9w-10" value="0" style="rounded=0;whiteSpace=wrap;html=1;fillColor=#ffe6cc;strokeColor=#d79b00;" vertex="1" parent="dh_aXsxSKlGYjo4SRe9w-15">
          <mxGeometry x="75" width="30" height="30" as="geometry" />
        </mxCell>
        <mxCell id="dh_aXsxSKlGYjo4SRe9w-11" value="&lt;font style=&quot;font-size: 9px;&quot;&gt;内存地址：0x000124e01&lt;/font&gt;" style="text;html=1;align=center;verticalAlign=middle;resizable=0;points=[];autosize=1;strokeColor=none;fillColor=none;" vertex="1" parent="dh_aXsxSKlGYjo4SRe9w-15">
          <mxGeometry y="25" width="120" height="30" as="geometry" />
        </mxCell>
        <mxCell id="dh_aXsxSKlGYjo4SRe9w-16" value="" style="group" vertex="1" connectable="0" parent="1">
          <mxGeometry x="455" y="190" width="120" height="55" as="geometry" />
        </mxCell>
        <mxCell id="dh_aXsxSKlGYjo4SRe9w-17" value="19" style="rounded=0;whiteSpace=wrap;html=1;fillColor=#ffe6cc;strokeColor=#d79b00;" vertex="1" parent="dh_aXsxSKlGYjo4SRe9w-16">
          <mxGeometry x="15" width="30" height="30" as="geometry" />
        </mxCell>
        <mxCell id="dh_aXsxSKlGYjo4SRe9w-18" value="21" style="rounded=0;whiteSpace=wrap;html=1;fillColor=#ffe6cc;strokeColor=#d79b00;" vertex="1" parent="dh_aXsxSKlGYjo4SRe9w-16">
          <mxGeometry x="45" width="30" height="30" as="geometry" />
        </mxCell>
        <mxCell id="dh_aXsxSKlGYjo4SRe9w-19" value="10" style="rounded=0;whiteSpace=wrap;html=1;fillColor=#ffe6cc;strokeColor=#d79b00;" vertex="1" parent="dh_aXsxSKlGYjo4SRe9w-16">
          <mxGeometry x="75" width="30" height="30" as="geometry" />
        </mxCell>
        <mxCell id="dh_aXsxSKlGYjo4SRe9w-20" value="&lt;font style=&quot;font-size: 9px;&quot;&gt;内存地址：0x000344e11&lt;/font&gt;" style="text;html=1;align=center;verticalAlign=middle;resizable=0;points=[];autosize=1;strokeColor=none;fillColor=none;" vertex="1" parent="dh_aXsxSKlGYjo4SRe9w-16">
          <mxGeometry y="25" width="120" height="30" as="geometry" />
        </mxCell>
        <mxCell id="dh_aXsxSKlGYjo4SRe9w-21" value="" style="endArrow=classic;html=1;rounded=0;" edge="1" parent="1">
          <mxGeometry width="50" height="50" relative="1" as="geometry">
            <mxPoint x="355" y="204.70999999999998" as="sourcePoint" />
            <mxPoint x="455" y="204.70999999999998" as="targetPoint" />
          </mxGeometry>
        </mxCell>
        <mxCell id="dh_aXsxSKlGYjo4SRe9w-22" value="names := [2]string{&quot;坚深 &quot;,&quot;shen&quot;}" style="text;strokeColor=none;align=center;fillColor=none;html=1;verticalAlign=middle;whiteSpace=wrap;rounded=0;" vertex="1" parent="1">
          <mxGeometry x="170" y="380" width="180" height="30" as="geometry" />
        </mxCell>
        <mxCell id="dh_aXsxSKlGYjo4SRe9w-25" value="shen" style="rounded=0;whiteSpace=wrap;html=1;fillColor=#ffe6cc;strokeColor=#d79b00;" vertex="1" parent="1">
          <mxGeometry x="546" y="310" width="55" height="30" as="geometry" />
        </mxCell>
        <mxCell id="dh_aXsxSKlGYjo4SRe9w-26" value="坚深" style="rounded=0;whiteSpace=wrap;html=1;fillColor=#ffe6cc;strokeColor=#d79b00;" vertex="1" parent="1">
          <mxGeometry x="430" y="310" width="55" height="30" as="geometry" />
        </mxCell>
        <mxCell id="dh_aXsxSKlGYjo4SRe9w-28" value="" style="group;fillColor=#dae8fc;strokeColor=#6c8ebf;" vertex="1" connectable="0" parent="1">
          <mxGeometry x="460" y="380" width="110" height="30" as="geometry" />
        </mxCell>
        <mxCell id="dh_aXsxSKlGYjo4SRe9w-23" value="str=指针&lt;br style=&quot;font-size: 9px;&quot;&gt;len=6" style="rounded=0;whiteSpace=wrap;html=1;fillColor=#dae8fc;strokeColor=#6c8ebf;fontSize=9;" vertex="1" parent="dh_aXsxSKlGYjo4SRe9w-28">
          <mxGeometry width="55" height="30" as="geometry" />
        </mxCell>
        <mxCell id="dh_aXsxSKlGYjo4SRe9w-29" value="" style="endArrow=classic;html=1;rounded=0;" edge="1" parent="1">
          <mxGeometry width="50" height="50" relative="1" as="geometry">
            <mxPoint x="355" y="394.71" as="sourcePoint" />
            <mxPoint x="455" y="394.71" as="targetPoint" />
          </mxGeometry>
        </mxCell>
        <mxCell id="dh_aXsxSKlGYjo4SRe9w-43" style="edgeStyle=orthogonalEdgeStyle;rounded=0;orthogonalLoop=1;jettySize=auto;html=1;exitX=0.5;exitY=0;exitDx=0;exitDy=0;entryX=0.5;entryY=1;entryDx=0;entryDy=0;" edge="1" parent="1" source="dh_aXsxSKlGYjo4SRe9w-38" target="dh_aXsxSKlGYjo4SRe9w-25">
          <mxGeometry relative="1" as="geometry" />
        </mxCell>
        <mxCell id="dh_aXsxSKlGYjo4SRe9w-38" value="str=指针&lt;br style=&quot;font-size: 9px;&quot;&gt;len=4" style="rounded=0;whiteSpace=wrap;html=1;fillColor=#dae8fc;strokeColor=#6c8ebf;fontSize=9;" vertex="1" parent="1">
          <mxGeometry x="515" y="380" width="55" height="30" as="geometry" />
        </mxCell>
        <mxCell id="dh_aXsxSKlGYjo4SRe9w-39" value="&lt;font style=&quot;font-size: 9px;&quot;&gt;内存地址：0x000344b00&lt;/font&gt;" style="text;html=1;align=center;verticalAlign=middle;resizable=0;points=[];autosize=1;strokeColor=none;fillColor=none;" vertex="1" parent="1">
          <mxGeometry x="397" y="286" width="120" height="30" as="geometry" />
        </mxCell>
        <mxCell id="dh_aXsxSKlGYjo4SRe9w-40" value="&lt;font style=&quot;font-size: 9px;&quot;&gt;内存地址：0x000344b01&lt;/font&gt;" style="text;html=1;align=center;verticalAlign=middle;resizable=0;points=[];autosize=1;strokeColor=none;fillColor=none;" vertex="1" parent="1">
          <mxGeometry x="513" y="286" width="120" height="30" as="geometry" />
        </mxCell>
        <mxCell id="dh_aXsxSKlGYjo4SRe9w-42" style="edgeStyle=orthogonalEdgeStyle;rounded=0;orthogonalLoop=1;jettySize=auto;html=1;exitX=0.5;exitY=0;exitDx=0;exitDy=0;" edge="1" parent="1" source="dh_aXsxSKlGYjo4SRe9w-23" target="dh_aXsxSKlGYjo4SRe9w-26">
          <mxGeometry relative="1" as="geometry" />
        </mxCell>
        <mxCell id="SfUO3GUg0_Jq2T9oOTH8-1" value="&lt;h1&gt;数组的内存管理&lt;/h1&gt;" style="text;html=1;align=center;verticalAlign=middle;resizable=0;points=[];autosize=1;strokeColor=none;fillColor=none;" vertex="1" parent="1">
          <mxGeometry x="327" y="20" width="190" height="70" as="geometry" />
        </mxCell>
        <mxCell id="SfUO3GUg0_Jq2T9oOTH8-2" value="&lt;h1&gt;切片的内存管理&lt;/h1&gt;" style="text;html=1;align=center;verticalAlign=middle;resizable=0;points=[];autosize=1;strokeColor=none;fillColor=none;" vertex="1" parent="1">
          <mxGeometry x="327" y="470" width="190" height="70" as="geometry" />
        </mxCell>
        <mxCell id="SfUO3GUg0_Jq2T9oOTH8-3" value="" style="rounded=0;whiteSpace=wrap;html=1;" vertex="1" parent="1">
          <mxGeometry x="404" y="550" width="236" height="330" as="geometry" />
        </mxCell>
        <mxCell id="SfUO3GUg0_Jq2T9oOTH8-4" value="array=指针&lt;br&gt;len=长度&lt;br&gt;cap=容量" style="rounded=0;whiteSpace=wrap;html=1;fillColor=#ffe6cc;strokeColor=#d79b00;fontSize=9;" vertex="1" parent="1">
          <mxGeometry x="462" y="700" width="120" height="60" as="geometry" />
        </mxCell>
        <mxCell id="SfUO3GUg0_Jq2T9oOTH8-11" value="" style="endArrow=classic;html=1;rounded=0;" edge="1" parent="1">
          <mxGeometry width="50" height="50" relative="1" as="geometry">
            <mxPoint x="522" y="690" as="sourcePoint" />
            <mxPoint x="521.67" y="630" as="targetPoint" />
          </mxGeometry>
        </mxCell>
        <mxCell id="SfUO3GUg0_Jq2T9oOTH8-12" value="" style="endArrow=classic;html=1;rounded=0;" edge="1" parent="1">
          <mxGeometry width="50" height="50" relative="1" as="geometry">
            <mxPoint x="355" y="729.67" as="sourcePoint" />
            <mxPoint x="455" y="729.67" as="targetPoint" />
          </mxGeometry>
        </mxCell>
        <mxCell id="SfUO3GUg0_Jq2T9oOTH8-13" value="" style="rounded=0;whiteSpace=wrap;html=1;fillColor=#ffe6cc;strokeColor=#d79b00;" vertex="1" parent="1">
          <mxGeometry x="447" y="590" width="30" height="30" as="geometry" />
        </mxCell>
        <mxCell id="SfUO3GUg0_Jq2T9oOTH8-15" value="" style="rounded=0;whiteSpace=wrap;html=1;fillColor=#ffe6cc;strokeColor=#d79b00;" vertex="1" parent="1">
          <mxGeometry x="477" y="590" width="30" height="30" as="geometry" />
        </mxCell>
        <mxCell id="SfUO3GUg0_Jq2T9oOTH8-16" value="" style="rounded=0;whiteSpace=wrap;html=1;fillColor=#ffe6cc;strokeColor=#d79b00;" vertex="1" parent="1">
          <mxGeometry x="507" y="590" width="30" height="30" as="geometry" />
        </mxCell>
        <mxCell id="SfUO3GUg0_Jq2T9oOTH8-17" value="" style="rounded=0;whiteSpace=wrap;html=1;fillColor=#ffe6cc;strokeColor=#d79b00;" vertex="1" parent="1">
          <mxGeometry x="537" y="590" width="30" height="30" as="geometry" />
        </mxCell>
        <mxCell id="SfUO3GUg0_Jq2T9oOTH8-18" value="" style="rounded=0;whiteSpace=wrap;html=1;fillColor=#ffe6cc;strokeColor=#d79b00;" vertex="1" parent="1">
          <mxGeometry x="567" y="590" width="30" height="30" as="geometry" />
        </mxCell>
        <mxCell id="SfUO3GUg0_Jq2T9oOTH8-19" value="" style="rounded=0;whiteSpace=wrap;html=1;fillColor=#dae8fc;strokeColor=#6c8ebf;" vertex="1" parent="1">
          <mxGeometry x="472" y="810" width="100" height="30" as="geometry" />
        </mxCell>
        <mxCell id="SfUO3GUg0_Jq2T9oOTH8-20" value="" style="endArrow=classic;html=1;rounded=0;" edge="1" parent="1">
          <mxGeometry width="50" height="50" relative="1" as="geometry">
            <mxPoint x="355" y="824.67" as="sourcePoint" />
            <mxPoint x="455" y="824.67" as="targetPoint" />
          </mxGeometry>
        </mxCell>
        <mxCell id="SfUO3GUg0_Jq2T9oOTH8-22" value="切片" style="text;html=1;align=center;verticalAlign=middle;resizable=0;points=[];autosize=1;strokeColor=none;fillColor=none;" vertex="1" parent="1">
          <mxGeometry x="645" y="708" width="50" height="30" as="geometry" />
        </mxCell>
        <mxCell id="SfUO3GUg0_Jq2T9oOTH8-23" value="指针" style="text;html=1;align=center;verticalAlign=middle;resizable=0;points=[];autosize=1;strokeColor=none;fillColor=none;" vertex="1" parent="1">
          <mxGeometry x="645" y="810" width="50" height="30" as="geometry" />
        </mxCell>
      </root>
    </mxGraphModel>
  </diagram>
</mxfile>
